# xmcd
#
# Track frame offsets: 
#        150
#        8407
#        22877
#        31355
#        42752
#        57605
#        69155
#        79805
#        83630
#        90830
#        103202
#        128705
#
# Disc length: 1908 seconds
#
# Revision: 2
# Processed by: cddbd v1.5PL3 Copyright (c) Steve Scherf et al.
# Submitted via: ExactAudioCopy v0.95a5
#
DISCID=8107720c
DTITLE=Various Artist - Generations Of Bluegrass, Vol. 3: Legendary Pickers
DYEAR=1999
DGENRE=Bluegrass
TTITLE0=The Stanley Brothers - Big Tildy
TTITLE1=Doc Watson - Deep River Blues
TTITLE2=Lester Flatt and Earl Scruggs and The Foggy Mountain Boys - Fire B
TTITLE2=all Mail
TTITLE3=The Osborne Brothers - Tennessee Hound Dog
TTITLE4=Alison Krauss and Union Station - Every Time You Say Goodbye
TTITLE5=The Stanley Brothers with The Clinch Mountain Boys - The Field
TTITLE5=s Have Turned Brown
TTITLE6=Bill Monroe And His Blue Grass Boys - Wheel Hoss
TTITLE7=Sam Bush - Cloverleaf Rag
TTITLE8=The Dillards - Banjo In The Hollow
TTITLE9=Skaggs and Rice - Bury Me Beneath The Weeping Willow
TTITLE10=New Grass Revival - Indian Hills
TTITLE11=Jerry Douglas - Shenandoah Breakdown
EXTD=YEAR: 1999 ID3G:   2
EXTT0=
EXTT1=
EXTT2=
EXTT3=
EXTT4=
EXTT5=
EXTT6=
EXTT7=
EXTT8=
EXTT9=
EXTT10=
EXTT11=
PLAYORDER=
